<svg xmlns="http://www.w3.org/2000/svg" xmlns:xlink="http://www.w3.org/1999/xlink" viewBox="0 0 100 68" class="h-100 w-auto align-top">
  <defs>
    <path id="a" d="M0 0h100v68H0z"/>
  </defs>
  <g fill="none" fill-rule="evenodd">
    <mask id="b" fill="#fff">
      <use xlink:href="#a"/>
    </mask>
    <g mask="url(#b)">
      <g fill="#7C7C7C" fill-opacity=".16">
        <path d="M529.778972 0c.891519 0 1.214805.092826 1.540731.267133.325926.174307.581714.430095.756021.756021.174308.325926.267133.649212.267133 1.540731V68H0V2.563885c0-.891519.092826-1.214805.267133-1.54073C.44144.697227.697228.44144 1.023154.267132 1.34908.092826 1.672366 0 2.563885 0h527.215087ZM76.75704 37.350749c-1.586343 0-2.871543 1.286171-2.871543 2.872514V56.17412c0 1.586343 1.2852 2.872514 2.871543 2.872514l399.834171.971429c1.586343 0 2.870572-1.286172 2.870572-2.872514V41.19469c0-1.586342-1.284229-2.872514-2.870572-2.872514Z" stroke-opacity=".04" stroke="#7C7C7C"/>
        <path d="m13.808274 10.128211 68.233143.005829c3.578743-.001943 5.293557 4.599714 6.8595 9.201857l.246267.725987c1.281163 3.781181 2.522545 7.398242 4.683284 8.276912l437.303349-.002516v39.267086H.000389V28.33628l2.210468.002368C8.127015 26.362784 8.2062 10.128211 13.808274 10.128211ZM76.75704 37.35075c-1.586343 0-2.871543 1.286171-2.871543 2.872514V56.17412c0 1.586343 1.2852 2.872514 2.871543 2.872514l399.834171.971429c1.586343 0 2.870572-1.286172 2.870572-2.872514V41.19469c0-1.586342-1.284229-2.872514-2.870572-2.872514Z"/>
      </g>
      <path d="m81.785154 21.311783-1.1288-1.289086 1.1288-1.290057c.191372-.193314.191372-.504171 0-.695543-.192343-.192343-.5032-.191371-.694571 0l-1.086057 1.239543-1.085086-1.239543c-.191371-.191371-.5032-.192343-.694571 0-.192343.191372-.192343.502229 0 .695543l1.1288 1.290057-1.1288 1.289086c-.192343.191371-.192343.5032-.000972.694571.192343.192343.504172.192343.695543 0l1.085086-1.240514 1.086057 1.240514c.191371.192343.5032.192343.694571 0 .191372-.191371.191372-.5032 0-.694571Z" fill="#61625E"/>
      <path d="M57.997313 40.8c3.686923 0 6.684464 2.952858 6.775105 6.62957h2.03751l-3.051158 3.400957-3.049883-3.400958h2.36816c-.089365-2.737107-2.329861-4.92909-5.079734-4.92909-2.808599 0-5.083564 2.281348-5.083564 5.098883s2.274965 5.101436 5.083564 5.101436c1.124716 0 2.165174-.368948 3.007753-.989393l1.166845 1.245997C61.020386 53.86126 59.571404 54.4 57.997313 54.4c-3.744373 0-6.778936-3.0435-6.778936-6.800638 0-3.754586 3.034563-6.799362 6.778936-6.799362ZM15.870557 41.170963c-.489049.478182-5.27811 5.506334-5.27811 5.506334-.260826.254788-.392447.589274-.392447.92376 0 .334485.13162.667763.392447.92376 0 0 4.789061 5.026944 5.27811 5.505125.48905.476974 1.371754.509578 1.894614 0 .521652-.50837.563916-1.220812-.001208-1.84752l-4.391784-4.581366 4.391784-4.582573c.565124-.624293.52286-1.336735.001208-1.84752-.52286-.510785-1.405564-.478182-1.894614 0ZM32.90175 54.029488c.490268-.478193 5.278233-5.506461 5.278233-5.506461.260832-.254795.392456-.589288.392456-.922574 0-.335701-.131624-.670195-.392456-.92499 0 0-4.787965-5.02706-5.278233-5.504046-.489061-.4794-1.371786-.510797-1.894658 0-.521665.508382-.56393 1.22084.001208 1.846355l4.391886 4.58268-4.391886 4.581474c-.565137.625514-.522873 1.337973-.001208 1.847562.522872.50959 1.405597.478193 1.894658 0Z" fill="#0B0B09"/>
    </g>
  </g>
</svg>
