<svg viewBox="0 0 30 20" class="h-100 w-auto align-top" xmlns="http://www.w3.org/2000/svg">
    <defs>
        <rect id="path-1" x="0" y="0" width="30" height="20"></rect>
    </defs>
    <g id="Page-1" stroke="none" stroke-width="1" fill="none" fill-rule="evenodd">
        <g id="Group-38-+-Group-47-Mask">
            <mask id="mask-2" fill="white">
                <use xlink:href="#path-1"></use>
            </mask>
            <g id="Mask"></g>
            <g id="Group-38" mask="url(#mask-2)" fill="#7C7C7C" fill-opacity="0.16">
                <g transform="translate(-126, 0)">
                    <path d="M152,0.5 C152.966498,0.5 153.841498,0.891750844 154.474874,1.52512627 C155.108249,2.15850169 155.5,3.03350169 155.5,4 L155.5,19.5 L0.5,19.5 L0.5,4 C0.5,3.03350169 0.891750844,2.15850169 1.52512627,1.52512627 C2.15850169,0.891750844 3.03350169,0.5 4,0.5 L152,0.5 Z M22.8507053,10.5000012 C22.4837157,10.5 22.1544547,10.6361552 21.9154009,10.8500918 C21.6550957,11.0830469 21.5,11.4065702 21.5,11.7603497 L21.5,15.9825148 C21.5,16.3362943 21.6550957,16.6598176 21.9154009,16.8927727 C22.1544547,17.1067093 22.4837157,17.2428645 22.8496186,17.2428645 L141.149582,17.4999988 C141.516609,17.5 141.845787,17.3638293 142.084766,17.149887 C142.344966,16.9169478 142.5,16.5934422 142.5,16.2396503 L142.5,12.0174852 C142.5,11.6636933 142.344966,11.3401877 142.084766,11.1072485 C141.845787,10.8933062 141.516609,10.7571355 141.150669,10.7571355 Z" id="Back" stroke-opacity="0.04" stroke="#7C7C7C" stroke-width="1"></path>
                    <path d="M4.77228571,3 L24.8408571,3.00171429 C26.589788,3.00076481 26.8251838,6.7380005 27.8610421,8.00278561 L156.000114,8 L156.000114,20 L0.000114,20 L0.000114,8 L1.89844866,8.00289256 C3.12815429,6.74003834 3.31405233,3 4.77228571,3 Z M22.8496186,11 C22.3802589,11 22,11.3404474 22,11.7603497 L22,15.9825148 C22,16.4024171 22.3802589,16.7428645 22.8496186,16.7428645 L141.150669,17 C141.620029,17 142,16.6595526 142,16.2396503 L142,12.0174852 C142,11.5975829 141.620029,11.2571355 141.150669,11.2571355 Z" id="Front\" stroke="none"></path>
                </g>
            </g>
            <g id="Group-47" mask="url(#mask-2)">
                <g transform="translate(-123, 3)">
                    <path d="" id="Fill-39" stroke="#979797" stroke-width="1" fill="none"></path>
                    <path d="M149.000267,1.5 C149.000267,2.32831433 148.328314,3 147.5,3 C146.671953,3 146,2.32831433 146,1.5 C146,0.671685674 146.671953,0 147.5,0 C148.328314,0 149.000267,0.671685674 149.000267,1.5 L149.000267,1.5 Z" id="Fill-28" stroke="none" fill="#C65F57" fill-rule="evenodd"></path>
                    <path d="M144.000267,1.5 C144.000267,2.32831433 143.328314,3 142.5,3 C141.671953,3 141,2.32831433 141,1.5 C141,0.671685674 141.671953,0 142.5,0 C143.328314,0 144.000267,0.671685674 144.000267,1.5 L144.000267,1.5 Z" id="Fill-27" stroke="none" fill="#D2A355" fill-rule="evenodd"></path>
                    <path d="M139.000267,1.5 C139.000267,2.32831433 138.328314,3 137.5,3 C136.671953,3 136,2.32831433 136,1.5 C136,0.671685674 136.671953,0 137.5,0 C138.328314,0 139.000267,0.671685674 139.000267,1.5 L139.000267,1.5 Z" id="Fill-26" stroke="none" fill="#6AAC4B" fill-rule="evenodd"></path>
                </g>
            </g>
        </g>
    </g>
</svg>