<svg xmlns="http://www.w3.org/2000/svg" xmlns:xlink="http://www.w3.org/1999/xlink" viewBox="0 0 100 60" class="h-100 w-auto align-top">
  <defs>
    <path id="a" d="M0 0h100v60H0z"/>
  </defs>
  <g fill="none" fill-rule="evenodd">
    <mask id="b" fill="#fff">
      <use xlink:href="#a"/>
    </mask>
    <g mask="url(#b)">
      <path d="M97.436115 0c.891519 0 1.214805.092826 1.540731.267133.325926.174307.581714.430095.756021.756021.174307.325926.267133.649212.267133 1.540731V60h-600V2.563885c0-.891519.092826-1.214805.267133-1.54073.174307-.325927.430095-.581715.756021-.756022C-498.65092.092826-498.327634 0-497.436115 0h594.87223Zm-577.414587 24.097774c-2.221636 0-4.021528 1.449635-4.021528 3.237591v17.978102c0 1.787956 1.799892 3.237591 4.021528 3.237591l559.958305 1.09489c2.221635 0 4.020167-1.449634 4.020167-3.23759V28.430256c0-1.787957-1.798532-3.237592-4.020167-3.237592Z" fill="#7C7C7C" stroke="#7C7C7C" fill-opacity=".16" stroke-opacity=".04"/>
      <g fill-opacity=".5" fill-rule="nonzero">
        <path d="M70.99947 32.71591c-2.21961.000854-4.17296 1.46489-4.796636 3.595077-.623675 2.130187.231636 4.416542 2.100299 5.61436 1.868662 1.19782 4.303303 1.020334 5.97849-.435831 1.675188-1.456165 2.189868-3.842392 1.263847-5.859607-.101967-.248113.010026-.532482.253797-.644434.24377-.111952.53245-.011592.654203.227434 1.111178 2.420788.493366 5.284349-1.517076 7.031648-2.010441 1.7473-4.932159 1.95999-7.174456.522271-2.242298-1.437718-3.26831-4.181615-2.519435-6.737807.748875-2.556192 3.093336-4.312659 5.756967-4.313112v1Z" fill="#010000"/>
        <path d="M70.99947 34.18191v-3.932c.000036-.096977.056152-.185184.143976-.226311.087824-.041128.19151-.027755.266024.03431l2.36 1.966c.12.1.12.284 0 .384l-2.36 1.966c-.074515.062065-.1782.075438-.266024.034311-.087824-.041127-.14394-.129334-.143976-.22631Z" fill="#000"/>
      </g>
    </g>
  </g>
</svg>
