<svg viewBox="0 0 156 20" xmlns="http://www.w3.org/2000/svg">
    <g id="Group-38" fill="#7C7C7C" fill-opacity="0.16">
        <path d="M152,0.5 C152.966498,0.5 153.841498,0.891750844 154.474874,1.52512627 C155.108249,2.15850169 155.5,3.03350169 155.5,4 L155.5,19.5 L0.5,19.5 L0.5,4 C0.5,3.03350169 0.891750844,2.15850169 1.52512627,1.52512627 C2.15850169,0.891750844 3.03350169,0.5 4,0.5 L152,0.5 Z M22.8507053,10.5000012 C22.4837157,10.5 22.1544547,10.6361552 21.9154009,10.8500918 C21.6550957,11.0830469 21.5,11.4065702 21.5,11.7603497 L21.5,15.9825148 C21.5,16.3362943 21.6550957,16.6598176 21.9154009,16.8927727 C22.1544547,17.1067093 22.4837157,17.2428645 22.8496186,17.2428645 L141.149582,17.4999988 C141.516609,17.5 141.845787,17.3638293 142.084766,17.149887 C142.344966,16.9169478 142.5,16.5934422 142.5,16.2396503 L142.5,12.0174852 C142.5,11.6636933 142.344966,11.3401877 142.084766,11.1072485 C141.845787,10.8933062 141.516609,10.7571355 141.150669,10.7571355 Z" id="Back" stroke-opacity="0.04" stroke="#7C7C7C"></path>
        <path d="M4.77228571,3 L24.8408571,3.00171429 C26.589788,3.00076481 26.8251838,6.7380005 27.8610421,8.00278561 L156.000114,8 L156.000114,20 L0.000114,20 L0.000114,8 L1.89844866,8.00289256 C3.12815429,6.74003834 3.31405233,3 4.77228571,3 Z M22.8496186,11 C22.3802589,11 22,11.3404474 22,11.7603497 L22,15.9825148 C22,16.4024171 22.3802589,16.7428645 22.8496186,16.7428645 L141.150669,17 C141.620029,17 142,16.6595526 142,16.2396503 L142,12.0174852 C142,11.5975829 141.620029,11.2571355 141.150669,11.2571355 Z"></path>
    </g>
    <g id="Group-47" transform="translate(3, 3)">
        <path d="M21.9254047,3.60594395 L21.3387397,3.00037084 L21.9254047,2.39434138 C22.0248651,2.30352823 22.0248651,2.15749703 21.9254047,2.06759658 C21.8254394,1.97723978 21.6638794,1.97769613 21.5644189,2.06759658 L20.9999685,2.64989597 L20.4360229,2.06759658 C20.3365625,1.97769613 20.1744976,1.97723978 20.0750372,2.06759658 C19.9750719,2.15749703 19.9750719,2.30352823 20.0750372,2.39434138 L20.6617021,3.00037084 L20.0750372,3.60594395 C19.9750719,3.6958444 19.9750719,3.84233194 20.0745323,3.9322324 C20.1744976,4.0225892 20.3365625,4.0225892 20.4360229,3.9322324 L20.9999685,3.34947666 L21.5644189,3.9322324 C21.6638794,4.0225892 21.8259443,4.0225892 21.9254047,3.9322324 C22.0248651,3.84233194 22.0248651,3.6958444 21.9254047,3.60594395 L21.9254047,3.60594395 Z" id="Fill-24" fill="#61625E"></path>
        <path d="" id="Fill-39" stroke="#979797"></path>
        <path d="M149.000267,1.5 C149.000267,2.32831433 148.328314,3 147.5,3 C146.671953,3 146,2.32831433 146,1.5 C146,0.671685674 146.671953,0 147.5,0 C148.328314,0 149.000267,0.671685674 149.000267,1.5 L149.000267,1.5 Z" id="Fill-28" fill="#C65F57"></path>
        <path d="M144.000267,1.5 C144.000267,2.32831433 143.328314,3 142.5,3 C141.671953,3 141,2.32831433 141,1.5 C141,0.671685674 141.671953,0 142.5,0 C143.328314,0 144.000267,0.671685674 144.000267,1.5 L144.000267,1.5 Z" id="Fill-27" fill="#D2A355"></path>
        <path d="M139.000267,1.5 C139.000267,2.32831433 138.328314,3 137.5,3 C136.671953,3 136,2.32831433 136,1.5 C136,0.671685674 136.671953,0 137.5,0 C138.328314,0 139.000267,0.671685674 139.000267,1.5 L139.000267,1.5 Z" id="Fill-26" fill="#6AAC4B"></path>
        <path d="M12.9938046,9 C14.0781939,9 14.9598235,9.86848775 14.9864827,10.9498733 L15.5857505,10.9498733 L14.6883507,11.9501549 L13.7913264,10.9498733 L14.4878438,10.9498733 C14.4615601,10.1448418 13.8025908,9.50014081 12.9938046,9.50014081 C12.1677462,9.50014081 11.4986389,10.1711255 11.4986389,10.9998123 C11.4986389,11.828499 12.1677462,12.5002347 12.9938046,12.5002347 C13.3246034,12.5002347 13.6306205,12.3917206 13.878438,12.2092368 L14.2216277,12.5757064 C13.8829438,12.841547 13.4567727,13 12.9938046,13 C11.8925185,13 11,12.1048531 11,10.9998123 C11,9.89552239 11.8925185,9 12.9938046,9 L12.9938046,9 Z" id="Fill-25" fill="#0B0B09"></path>
        <path d="M1.66781101,9.1091068 C1.52397296,9.24974845 0.115425591,10.7286166 0.115425591,10.7286166 C0.0387119676,10.8035545 0,10.9019326 0,11.0003107 C0,11.0986888 0.0387119676,11.1967118 0.115425591,11.2720048 C0.115425591,11.2720048 1.52397296,12.7505178 1.66781101,12.8911595 C1.81164905,13.031446 2.07126784,13.0410352 2.22505025,12.8911595 C2.37847749,12.741639 2.39090794,12.5320971 2.22469509,12.3477713 L0.932993934,11.0003107 L2.22469509,9.65249497 C2.39090794,9.46887949 2.37847749,9.25933765 2.22505025,9.1091068 C2.07126784,8.95887596 1.81164905,8.96846516 1.66781101,9.1091068 L1.66781101,9.1091068 Z" id="Fill-20" fill="#0B0B09"></path>
        <path d="M6.6769852,12.891026 C6.82118176,12.750381 8.22940678,11.2714784 8.22940678,11.2714784 C8.30612219,11.1965388 8.34483506,11.0981584 8.34483506,11.0001332 C8.34483506,10.9013976 8.30612219,10.8030172 8.22940678,10.7280776 C8.22940678,10.7280776 6.82118176,9.2495301 6.6769852,9.10924035 C6.53314381,8.96824026 6.27351897,8.959006 6.11973298,9.10924035 C5.96630216,9.25876436 5.95387142,9.46831109 6.12008815,9.65228601 L7.41181939,11.0001332 L6.12008815,12.3476251 C5.95387142,12.5316001 5.96630216,12.7411468 6.11973298,12.891026 C6.27351897,13.0409051 6.53314381,13.0316709 6.6769852,12.891026 L6.6769852,12.891026 Z" id="Fill-19" fill="#0B0B09"></path>
    </g>
</svg>