<svg preserveAspectRatio="none" viewBox="0 0 20 60" xmlns="http://www.w3.org/2000/svg" xmlns:xlink="http://www.w3.org/1999/xlink" class="w-100 mxw-none h-100 align-top">
  <mask id="a" fill="#fff">
    <path d="m0 0h20v60h-20z" fill="#fff" fill-rule="evenodd" />
  </mask>
  <g fill="none" fill-opacity=".16" fill-rule="evenodd" mask="url(#a)" stroke-opacity=".04">
    <path d="m477.436115 0c.891519 0 1.214805.092826 1.540731.267133s.581714.430095.756021.756021.267133.649212.267133 1.540731v57.436115h-600v-57.436115c0-.891519.092826-1.214805.267133-1.54073.174307-.325927.430095-.581715.756021-.756022.325926-.174307.649212-.267133 1.540731-.267133zm-577.414587 24.097774c-2.221636 0-4.021528 1.449635-4.021528 3.237591v17.978102c0 1.787956 1.799892 3.237591 4.021528 3.237591l559.958305 1.09489c2.221635 0 4.020167-1.449634 4.020167-3.23759v-17.978102c0-1.787957-1.798532-3.237592-4.020167-3.237592z" fill="#7c7c7c" stroke="#7c7c7c" />
  </g>
</svg>
