<svg xmlns="http://www.w3.org/2000/svg" xmlns:xlink="http://www.w3.org/1999/xlink" viewBox="0 0 100 68" class="ch-24 w-auto align-top">
  <defs>
    <path id="a" d="M0 0h100v68H0z"/>
  </defs>
  <g fill="none" fill-rule="evenodd">
    <mask id="b" fill="#fff">
      <use xlink:href="#a"/>
    </mask>
    <g mask="url(#b)">
      <g fill-opacity=".16" fill="#7C7C7C">
        <path d="M95.778972 0c.891519 0 1.214805.092826 1.540731.267133.325926.174307.581714.430095.756021.756021.174308.325926.267133.649212.267133 1.540731V68H-434V2.563885c0-.891519.092826-1.214805.267133-1.54073.174307-.325927.430095-.581715.756021-.756022C-432.65092.092826-432.327634 0-431.436115 0H95.778972ZM-357.24296 37.350749c-1.586343 0-2.871543 1.286171-2.871543 2.872514V56.17412c0 1.586343 1.2852 2.872514 2.871543 2.872514l399.834171.971429c1.586343 0 2.870572-1.286172 2.870572-2.872514V41.19469c0-1.586342-1.284229-2.872514-2.870572-2.872514Z" stroke-opacity=".04" stroke="#7C7C7C"/>
        <path d="m-420.191726 10.128211 68.233143.005829c3.578743-.001943 5.293557 4.599714 6.8595 9.201857l.246267.725987c1.281163 3.781181 2.522545 7.398242 4.683284 8.276912l437.303349-.002516v39.267086h-531.133428V28.33628l2.210468.002368c5.916158-1.975864 5.995343-18.210437 11.597417-18.210437Zm62.948766 27.222538c-1.586343 0-2.871543 1.286171-2.871543 2.872514V56.17412c0 1.586343 1.2852 2.872514 2.871543 2.872514l399.834171.971429c1.586343 0 2.870572-1.286172 2.870572-2.872514V41.19469c0-1.586342-1.284229-2.872514-2.870572-2.872514Z"/>
      </g>
      <path d="M75.028145 54.4H63.37086c-.536161 0-.97086.759965-.97086 1.699265S62.834699 57.8 63.37086 57.8h11.657285C75.564307 57.8 76 57.038565 76 56.099265c0-.9393-.435693-1.699265-.971855-1.699265ZM63.37086 44.2h11.657285C75.564307 44.2 76 43.438894 76 42.5s-.435693-1.7-.971855-1.7H63.37086c-.536161 0-.97086.761106-.97086 1.7s.434699 1.7.97086 1.7Zm11.657285 3.4H63.37086c-.536161 0-.97086.761435-.97086 1.699265 0 .9393.434699 1.700735.97086 1.700735h11.657285C75.564307 51 76 50.238565 76 49.299265c0-.93783-.435693-1.699265-.971855-1.699265Z" fill-opacity=".496478" fill="#979894"/>
      <path d="M82.800909 15.3c0 2.816269-2.28464 5.1-5.100909 5.1-2.81536 0-5.1-2.283731-5.1-5.1 0-2.816269 2.28464-5.1 5.1-5.1 2.816269 0 5.100909 2.283731 5.100909 5.1Z" fill="#C65F57"/>
      <path d="M65.800909 15.3c0 2.816269-2.28464 5.1-5.100909 5.1-2.81536 0-5.1-2.283731-5.1-5.1 0-2.816269 2.28464-5.1 5.1-5.1 2.816269 0 5.100909 2.283731 5.100909 5.1Z" fill="#D2A355"/>
      <path d="M48.800909 15.3c0 2.816269-2.28464 5.1-5.100909 5.1-2.81536 0-5.1-2.283731-5.1-5.1 0-2.816269 2.28464-5.1 5.1-5.1 2.816269 0 5.100909 2.283731 5.100909 5.1Z" fill="#6AAC4B"/>
    </g>
  </g>
</svg>
