<svg viewBox="0 0 30 20" class="w-100 mxw-none h-100 align-top" xmlns="http://www.w3.org/2000/svg" preserveAspectRatio="none">
  <g fill="none" fill-rule="evenodd">
    <g mask="url(#mask-gw4le1oy2u-2)" fill="#7C7C7C" fill-opacity=".16">
      <path d="M56 .5c.966498 0 1.841498.39175 2.474874 1.025126C59.108249 2.158502 59.5 3.033502 59.5 4v15.5h-155V4c0-.966498.39175-1.841498 1.025126-2.474874C-93.841498.891751-92.966498.5-92 .5H56ZM-73.149295 10.500001c-.36699-.000001-.69625.136154-.935304.35009-.260305.232956-.415401.55648-.415401.910259v4.222165c0 .35378.155096.677303.4154.910258.239055.213936.568316.350092.934219.350092l118.299963.257134c.367027.000001.696205-.13617.935184-.350112.2602-.23294.415234-.556445.415234-.910237v-4.222165c0-.353792-.155034-.677297-.415234-.910236-.238979-.213943-.568157-.350113-.934097-.350113Z" stroke-opacity=".04" stroke="#7C7C7C"/>
      <path d="m-91.227714 3 20.068571.001714c1.748931-.00095 1.984327 3.736286 3.020185 5.001072L60.000114 8v12h-156V8l1.898335.002893C-92.871846 6.740038-92.685948 3-91.227714 3Zm18.077333 8c-.46936 0-.849619.340447-.849619.76035v4.222165c0 .419902.380259.76035.849619.76035L45.150669 17C45.620029 17 46 16.659553 46 16.23965v-4.222165c0-.419902-.379971-.76035-.849331-.76035Z"/>
    </g>
  </g>
</svg>