<svg xmlns="http://www.w3.org/2000/svg" xmlns:xlink="http://www.w3.org/1999/xlink" viewBox="0 0 100 60" class="h-100 w-auto align-top">
  <defs>
    <path id="a" d="M0 0h100v60H0z"/>
  </defs>
  <g fill="none" fill-rule="evenodd">
    <mask id="b" fill="#fff">
      <use xlink:href="#a"/>
    </mask>
    <g mask="url(#b)">
      <path d="M597.436115 0c.891519 0 1.214805.092826 1.540731.267133.325926.174307.581714.430095.756021.756021.174307.325926.267133.649212.267133 1.540731V60H0V2.563885c0-.891519.092826-1.214805.267133-1.54073C.44144.697227.697228.44144 1.023154.267132 1.34908.092826 1.672366 0 2.563885 0h594.87223ZM20.021528 24.097774C17.799892 24.097774 16 25.547409 16 27.335365v17.978102c0 1.787956 1.799892 3.237591 4.021528 3.237591l559.958305 1.09489c2.221635 0 4.020167-1.449634 4.020167-3.23759V28.430256c0-1.787957-1.798532-3.237592-4.020167-3.237592Z" fill="#7C7C7C" fill-opacity=".16" stroke="#7C7C7C" stroke-opacity=".04"/>
      <g fill="#000" fill-opacity=".5" fill-rule="nonzero">
        <path d="M24.5 34.000894c-.276142 0-.5.223857-.5.5v8c0 .276142.223858.5.5.5h9c.276142 0 .5-.223858.5-.5v-8c0-.276143-.223858-.5-.5-.5h-2c-.276142 0-.5-.223858-.5-.5 0-.276143.223858-.5.5-.5h2c.828427 0 1.5.671573 1.5 1.5v8c0 .828427-.671573 1.5-1.5 1.5h-9c-.828427 0-1.5-.671573-1.5-1.5v-8c0-.828427.671573-1.5 1.5-1.5h2c.276142 0 .5.223857.5.5 0 .276142-.223858.5-.5.5h-2Z"/>
        <path d="M28.646 28.146894a.5.5 0 0 1 .708 0l3 3c.195509.195509.195509.512491 0 .708-.195509.195509-.512491.195509-.708 0l-2.146-2.147v8.793c0 .276142-.223858.5-.5.5s-.5-.223858-.5-.5v-8.793l-2.146 2.147c-.126472.126472-.310809.175865-.483573.129573-.172764-.046292-.307708-.181236-.354-.354-.046292-.172764.003101-.357101.129573-.483573l3-3Z"/>
      </g>
    </g>
  </g>
</svg>
